HIERARCHY
ROOT Hips
{
     OFFSET 26.66470 94.64740 -30.91730
     CHANNELS 6 Xposition Yposition Zposition Zrotation Xrotation Yrotation
     JOINT Spine
     {
          OFFSET 0.00000 11.89050 0.00000
          CHANNELS 3 Zrotation Xrotation Yrotation
          JOINT Spine1
          {
               OFFSET 0.00000 25.65740 0.12766
               CHANNELS 3 Zrotation Xrotation Yrotation
               JOINT HEad
               {
                    OFFSET 0.00000 8.73416 0.01134
                    CHANNELS 3 Zrotation Xrotation Yrotation
                    End Site
                    {
                         OFFSET -0.29000 12.77420 2.51395
                    }
               }
               JOINT LeftShoulder1
               {
                    OFFSET 8.99000 -0.36225 -0.22000
                    CHANNELS 3 Zrotation Xrotation Yrotation
                    JOINT LeftArm
                    {
                         OFFSET 10.28270 -0.00338 0.32212
                         CHANNELS 3 Zrotation Xrotation Yrotation
                         JOINT LeftForeArm
                         {
                              OFFSET 32.76690 0.09914 -1.42434
                              CHANNELS 3 Zrotation Xrotation Yrotation
                              JOINT LeftHand
                              {
                                   OFFSET 27.56430 0.08536 1.02216
                                   CHANNELS 3 Zrotation Xrotation Yrotation
                                   End Site
                                   {
                                        OFFSET 16.74430 -0.60000 1.50291
                                   }
                              }
                         }
                    }
               }
               JOINT RightShoulder
               {
                    OFFSET -8.99000 -0.36225 -0.22000
                    CHANNELS 3 Zrotation Xrotation Yrotation
                    JOINT RightArm
                    {
                         OFFSET -10.28270 -0.00338 0.32212
                         CHANNELS 3 Zrotation Xrotation Yrotation
                         JOINT RightForeArm
                         {
                              OFFSET -32.89710 0.09914 -1.42434
                              CHANNELS 3 Zrotation Xrotation Yrotation
                              JOINT RightHand
                              {
                                   OFFSET -27.49210 0.08536 1.02216
                                   CHANNELS 3 Zrotation Xrotation Yrotation
                                   End Site
                                   {
                                        OFFSET -16.63120 -0.60000 1.50291
                                   }
                              }
                         }
                    }
               }
          }
     }
     JOINT LeftUpLeg
     {
          OFFSET 8.94580 -8.66707 0.10165
          CHANNELS 3 Zrotation Xrotation Yrotation
          JOINT LeftLeg
          {
               OFFSET 0.00000 -44.42270 1.37270
               CHANNELS 3 Zrotation Xrotation Yrotation
               JOINT LeftFoot
               {
                    OFFSET -0.25355 -42.09240 -1.46059
                    CHANNELS 3 Zrotation Xrotation Yrotation
                    JOINT LeftToes
                    {
                         OFFSET -0.04000 -4.41509 8.49910
                         CHANNELS 3 Zrotation Xrotation Yrotation
                         End Site
                         {
                              OFFSET 0.08000 -0.04745 9.77979
                         }
                    }
               }
          }
     }
     JOINT RightUpLeg
     {
          OFFSET -8.94580 -8.66707 0.10165
          CHANNELS 3 Zrotation Xrotation Yrotation
          JOINT RightLeg
          {
               OFFSET 0.00000 -44.42270 1.37270
               CHANNELS 3 Zrotation Xrotation Yrotation
               JOINT RightFoot
               {
                    OFFSET 0.25355 -42.09240 -1.46059
                    CHANNELS 3 Zrotation Xrotation Yrotation
                    JOINT RightToes
                    {
                         OFFSET 0.04000 -4.41509 8.49910
                         CHANNELS 3 Zrotation Xrotation Yrotation
                         End Site
                         {
                              OFFSET -0.08000 -0.13745 9.77979
                         }
                    }
               }
          }
     }
}
MOTION
Frames: 21
Frame Time: 0.01667
18.45320 91.02650 2.38441 -1.05128 0.98166 -77.10690 3.88061 13.23030 1.39762 8.00228 26.61540 1.71886 -18.86730 1.03605 16.97690 0.00000 0.00000 0.00000 -54.23460 -40.05560 6.42786 15.13730 30.46860 -95.01070 35.51820 12.50370 12.78090 5.18591 0.60267 3.41165 43.75660 20.64550 100.02100 2.36589 26.64680 92.37370 -14.89770 7.63729 13.94770 21.58980 -34.65320 13.88100 -2.48781 33.96720 4.01773 -12.63650 5.06132 1.35866 -6.80478 -6.72640 -6.20913 -15.38640 -9.79318 1.66606 -10.33060 35.75380 24.81930 11.23490 -35.55580 2.55345 2.16501 11.00260 -6.31453 
18.30740 91.14150 2.41671 -0.86683 1.15512 -76.72020 3.85799 13.23260 1.50426 7.90869 26.65040 1.91925 -18.73210 0.80434 16.73820 0.00000 0.00000 0.00000 -54.26850 -40.08590 6.41266 15.25200 30.51780 -95.35240 35.51170 12.51700 12.82580 5.12573 0.58829 3.28044 43.62800 20.66970 100.31700 2.54840 26.65490 92.14770 -14.83540 7.64265 13.98520 21.59900 -34.78130 14.16060 -2.29627 33.74970 3.37027 -12.87240 4.84669 1.36238 -6.21442 -5.98386 -6.13979 -15.42770 -9.39890 1.48502 -9.98848 34.98510 24.31410 11.55010 -35.24750 2.60247 2.07351 10.61770 -5.60534 
18.17550 91.23350 2.41033 -0.75740 1.31698 -76.38990 3.87256 13.23530 1.60663 7.83023 26.68680 2.11876 -18.60140 0.62365 16.50700 0.00000 0.00000 0.00000 -54.27630 -40.12160 6.35198 15.20350 30.54600 -95.40180 35.38610 12.49180 12.77630 5.07459 0.57427 3.14736 43.61980 20.62970 100.61500 2.79761 26.70180 91.84900 -14.72710 7.66130 13.97650 21.62310 -34.85800 14.17200 -2.24390 33.54700 3.04217 -12.94000 4.79478 1.36431 -5.98007 -5.69102 -6.10835 -15.43270 -9.05819 1.37840 -9.65582 34.42090 23.91110 12.03170 -35.06960 2.70685 2.08855 10.62540 -4.85246 
18.05650 91.30350 2.37508 -0.70771 1.47143 -76.15450 3.91799 13.23290 1.70728 7.74753 26.71020 2.33196 -18.49090 0.45662 16.35910 0.00000 0.00000 0.00000 -54.24500 -40.16060 6.29958 14.91110 30.54660 -95.13240 35.21800 12.41400 12.56480 5.05050 0.56222 3.02216 43.68500 20.55530 100.86800 2.98557 26.74790 91.59420 -14.60540 7.68975 13.90590 21.66850 -34.89980 13.99080 -2.26782 33.39090 2.97540 -12.83530 4.89579 1.36348 -6.10197 -5.87487 -6.05520 -15.39570 -8.79979 1.36722 -9.33973 34.06500 23.62380 12.66730 -35.04850 2.86758 2.22036 11.11180 -4.27798 
17.94440 91.35070 2.31408 -0.69592 1.61471 -76.02220 3.97517 13.21330 1.79460 7.66734 26.69240 2.53145 -18.40470 0.27174 16.36230 0.00000 0.00000 0.00000 -54.13960 -40.20320 6.35585 14.44530 30.51310 -94.65280 35.09530 12.30790 12.24660 5.03203 0.55349 2.93164 43.79910 20.50610 101.03600 3.07035 26.78880 91.42230 -14.52100 7.71316 13.82630 21.72780 -34.93100 13.76010 -2.25415 33.31550 2.99463 -12.64030 5.06459 1.35943 -6.40241 -6.32706 -5.93040 -15.32520 -8.63353 1.41417 -9.05771 33.89320 23.47600 13.34610 -35.15420 3.05531 2.40314 11.83380 -4.02927 
17.83590 91.37320 2.22709 -0.71174 1.74396 -75.97630 4.02405 13.16800 1.85468 7.62129 26.61430 2.67497 -18.35640 0.07470 16.52420 0.00000 0.00000 0.00000 -53.94250 -40.26000 6.59446 13.94070 30.45410 -94.11570 35.05000 12.20360 11.91380 4.96450 0.54862 2.90800 43.96400 20.51580 101.09500 3.10841 26.82480 91.29810 -14.48670 7.72016 13.81420 21.81070 -34.96530 13.55950 -2.17613 33.34330 3.00069 -12.43880 5.19218 1.34987 -6.64928 -6.75019 -5.72246 -15.22010 -8.54728 1.46800 -8.86226 33.88010 23.50610 14.01680 -35.43210 3.26551 2.64345 12.79480 -4.15950 
17.73270 91.37150 2.11409 -0.76670 1.85980 -75.98580 4.05667 13.09790 1.88579 7.63181 26.47750 2.74812 -18.34600 -0.08116 16.77490 0.00000 0.00000 0.00000 -53.67150 -40.33080 7.00560 13.48560 30.38900 -93.62200 35.04530 12.10900 11.60300 4.83241 0.54782 2.96225 44.17180 20.56110 101.03700 3.14851 26.84850 91.19550 -14.48740 7.71038 13.89310 21.94780 -34.98550 13.35030 -2.13181 33.46090 3.05893 -12.27790 5.22624 1.33511 -6.72746 -6.96485 -5.48813 -15.06320 -8.50660 1.49760 -8.82752 34.00390 23.73810 14.75740 -35.96620 3.53437 3.02270 14.26830 -4.61238 
17.63540 91.35130 1.97595 -0.87951 1.95521 -76.01240 4.08066 13.00930 1.89298 7.69068 26.29800 2.76241 -18.33870 -0.15156 17.03470 0.00000 0.00000 0.00000 -53.37520 -40.39240 7.50343 13.09760 30.32690 -93.19050 35.03470 12.01480 11.29480 4.67706 0.55137 3.08099 44.38150 20.59100 100.86300 3.18690 26.85380 91.12680 -14.52550 7.68917 14.01550 22.14510 -34.95710 13.04590 -2.22934 33.62520 3.28083 -12.18960 5.16952 1.31944 -6.62851 -6.92059 -5.30374 -14.85290 -8.46482 1.50894 -8.96139 34.23490 24.11050 15.61520 -36.70020 3.87392 3.53886 16.18480 -5.20958 
17.54000 91.32220 1.81260 -1.06771 2.00941 -76.01830 4.11610 12.91160 1.87600 7.77835 26.09630 2.72762 -18.29910 -0.13582 17.27620 0.00000 0.00000 0.00000 -53.11850 -40.40920 7.97711 12.78000 30.26450 -92.79930 35.01550 11.92100 10.98920 4.54725 0.55944 3.24420 44.54010 20.57020 100.58000 3.21557 26.83860 91.09650 -14.60500 7.66282 14.12410 22.35500 -34.84920 12.61820 -2.46099 33.79640 3.65387 -12.20060 5.02996 1.30674 -6.34549 -6.59821 -5.18626 -14.61850 -8.37356 1.54232 -9.15546 34.54540 24.45820 16.36540 -37.39640 4.19087 4.02095 17.89860 -5.70787 
17.44180 91.29170 1.62059 -1.35865 1.99650 -75.96990 4.18874 12.81710 1.82836 7.88976 25.89840 2.64024 -18.21700 -0.05712 17.50280 0.00000 0.00000 0.00000 -52.95710 -40.35890 8.34120 12.54040 30.20210 -92.43420 35.00370 11.84350 10.73550 4.46634 0.57166 3.43516 44.62210 20.48820 100.20600 3.25232 26.80710 91.06760 -14.68370 7.63943 14.20870 22.49820 -34.63080 12.11950 -2.70350 33.94690 4.02231 -12.31200 4.85131 1.30115 -5.93858 -6.08325 -5.12569 -14.39350 -8.18379 1.63746 -9.26686 34.93180 24.61290 16.59320 -37.81500 4.32290 4.25360 18.71030 -5.89743 
17.33680 91.25930 1.39066 -1.77803 1.89731 -75.84020 4.30731 12.73760 1.74786 8.02873 25.72980 2.49579 -18.07200 0.04470 17.72490 0.00000 0.00000 0.00000 -52.91760 -40.25550 8.55392 12.37240 30.15000 -92.10710 34.98520 11.79510 10.57950 4.43292 0.58637 3.63200 44.63390 20.34780 99.78490 3.33225 26.77140 90.97930 -14.69500 7.62865 14.28020 22.51050 -34.28070 11.62420 -2.82082 34.05490 4.20821 -12.47210 4.74300 1.30769 -5.60805 -5.63929 -5.13340 -14.19080 -7.86351 1.79220 -9.24189 35.41430 24.52840 16.09300 -37.89020 4.19117 4.14956 18.37500 -5.68870 
17.22060 91.21680 1.10888 -2.31936 1.71071 -75.61980 4.45563 12.67340 1.64941 8.19274 25.59640 2.31414 -17.81050 0.11826 17.95720 0.00000 0.00000 0.00000 -53.01510 -40.13950 8.58690 12.26640 30.12080 -91.84730 34.92690 11.77390 10.52060 4.43341 0.59978 3.79417 44.58740 20.16470 99.38290 3.46976 26.74460 90.79750 -14.61780 7.63691 14.31630 22.37990 -33.81390 11.19770 -2.73467 34.11100 4.10725 -12.61940 4.81559 1.33129 -5.56035 -5.53573 -5.22256 -13.99930 -7.42782 1.98095 -9.12442 36.01890 24.26200 14.99970 -37.70850 3.85077 3.75382 17.00820 -5.12645 
17.09230 91.15750 0.76413 -2.94452 1.45723 -75.31980 4.63389 12.60800 1.55852 8.37228 25.47190 2.14457 -17.38700 0.14017 18.20140 0.00000 0.00000 0.00000 -53.26430 -40.04560 8.40897 12.20150 30.12180 -91.67740 34.79830 11.76680 10.52200 4.46573 0.60828 3.87771 44.47980 19.96320 99.03090 3.60369 26.72650 90.54860 -14.49020 7.66260 14.27860 22.14220 -33.27090 10.88020 -2.42589 34.10570 3.70938 -12.77410 5.11707 1.37992 -5.84842 -5.84348 -5.38791 -13.79040 -6.92748 2.20540 -8.97478 36.75140 23.86220 13.60640 -37.38770 3.41221 3.16232 14.83400 -4.34754 
16.96100 91.08110 0.34743 -3.62023 1.14671 -74.95830 4.85376 12.51990 1.49553 8.53666 25.31920 2.03987 -16.81430 0.13010 18.45130 0.00000 0.00000 0.00000 -53.63790 -39.99110 8.02856 12.12610 30.14980 -91.60830 34.56520 11.75530 10.52880 4.54944 0.61215 3.87401 44.31640 19.75900 98.67930 3.61420 26.70290 90.29220 -14.35380 7.69884 14.16530 21.82110 -32.66950 10.65680 -1.91160 34.00790 3.06893 -13.03130 5.61425 1.46214 -6.34907 -6.41670 -5.58516 -13.55150 -6.40684 2.49631 -8.84480 37.61030 23.37080 12.32540 -37.07110 3.01553 2.52573 12.32310 -3.56246 
16.84100 91.00000 -0.14891 -4.34369 0.76584 -74.54260 5.12509 12.39730 1.46645 8.64178 25.12050 2.02999 -16.15710 0.11478 18.72550 0.00000 0.00000 0.00000 -54.05670 -39.99610 7.49634 11.95630 30.19390 -91.63120 34.20290 11.71260 10.45530 4.69953 0.61494 3.81873 44.15210 19.55600 98.21850 3.43782 26.66050 90.05150 -14.20990 7.74003 14.01850 21.39920 -31.97200 10.46840 -1.22853 33.75240 2.24181 -13.40910 6.20501 1.57156 -6.84695 -7.01514 -5.71609 -13.29460 -5.86024 2.86489 -8.78845 38.57340 22.88010 11.64210 -36.93800 2.81158 2.04427 10.30480 -2.98653 
16.74460 90.93130 -0.74131 -5.11640 0.29568 -74.04950 5.43321 12.24390 1.46550 8.66454 24.88230 2.11160 -15.50100 0.10774 19.05380 0.00000 0.00000 0.00000 -54.47480 -40.09280 6.80981 11.57620 30.24630 -91.69200 33.71110 11.60830 10.19340 4.89885 0.62025 3.76644 44.07610 19.35370 97.53530 3.14389 26.59780 89.78650 -14.04430 7.78205 13.89080 20.84970 -31.13980 10.25320 -0.44196 33.26580 1.25329 -13.71690 6.75027 1.67085 -7.11663 -7.40353 -5.65281 -13.03370 -5.26669 3.26486 -8.83340 39.61670 22.48080 11.74290 -37.08500 2.85571 1.83561 9.39585 -2.73034 
16.67730 90.89590 -1.45207 -5.91284 -0.26841 -73.42630 5.75914 12.06700 1.48358 8.61824 24.61500 2.26109 -14.92020 0.12036 19.42970 0.00000 0.00000 0.00000 -54.93810 -40.28860 5.84298 10.91140 30.30480 -91.72810 33.12370 11.43590 9.70198 5.12390 0.63096 3.76304 44.16170 19.14300 96.53850 2.86527 26.52860 89.44270 -13.86670 7.81983 13.81230 20.16040 -30.17390 9.98237 0.37088 32.47380 0.08810 -13.63400 7.10964 1.70071 -6.91698 -7.32070 -5.27299 -12.76230 -4.61524 3.60642 -8.94840 40.68600 22.14670 12.25960 -37.39440 3.03504 1.83287 9.39440 -2.81437 
16.63780 90.91540 -2.30243 -6.67909 -0.91892 -72.59630 6.09569 11.86470 1.51195 8.52634 24.31360 2.45073 -14.43640 0.14738 19.80850 0.00000 0.00000 0.00000 -55.52830 -40.52450 4.39434 10.02130 30.36540 -91.73040 32.51700 11.21750 9.02976 5.38711 0.64962 3.82660 44.45600 18.89940 95.15530 2.68251 26.47840 89.00820 -13.70460 7.84929 13.78210 19.32110 -29.10190 9.64974 1.16312 31.27520 -1.30122 -13.00380 7.20361 1.62879 -5.98571 -6.43335 -4.50656 -12.45640 -3.91172 3.79616 -9.06362 41.71080 21.73030 12.57190 -37.64490 3.15277 1.86938 9.59638 -3.22958 
16.62190 91.00610 -3.30594 -7.34651 -1.64782 -71.46050 6.45118 11.62240 1.53618 8.39882 23.95270 2.64423 -14.01580 0.15769 20.14420 0.00000 0.00000 0.00000 -56.28430 -40.70460 2.28584 9.00667 30.42180 -91.69170 31.97440 10.96460 8.19595 5.72463 0.67760 3.94660 44.99590 18.58350 93.34370 2.60559 26.46930 88.50930 -13.57020 7.86965 13.79200 18.31250 -27.94470 9.21636 1.90975 29.50800 -2.90804 -12.07910 7.08810 1.49655 -4.10384 -4.36196 -3.43456 -12.10760 -3.17609 3.75358 -9.09993 42.63480 21.06410 12.33010 -37.70290 3.09118 1.83014 9.51287 -3.92664 
16.62660 91.17400 -4.46715 -7.84427 -2.44463 -69.93030 6.83662 11.31880 1.54167 8.23023 23.49690 2.80650 -13.63020 0.15065 20.39050 0.00000 0.00000 0.00000 -57.19290 -40.77410 -0.57628 7.89240 30.47810 -91.56450 31.51460 10.67980 7.20480 6.15674 0.71357 4.09087 45.81810 18.15680 91.10280 2.62587 26.50910 87.99120 -13.44110 7.88526 13.83650 17.14120 -26.70770 8.65285 2.57885 26.98550 -4.61841 -11.43150 6.91560 1.39661 -1.12596 -0.71719 -2.37758 -11.73440 -2.44396 3.44089 -8.96056 43.42280 19.99530 11.57960 -37.55990 2.86273 1.69205 9.06427 -4.79723 
16.64590 91.40900 -5.78063 -8.11207 -3.26975 -67.96370 7.25900 10.93160 1.52780 8.01628 22.90830 2.92531 -13.28000 0.18276 20.48600 0.00000 0.00000 0.00000 -58.24380 -40.74040 -4.19790 6.75606 30.55070 -91.36950 31.12240 10.40280 6.20720 6.66410 0.75196 4.20877 46.96940 17.59990 88.46840 2.73114 26.60090 87.52790 -13.29290 7.90160 13.90280 15.89380 -25.40270 8.04586 3.11566 23.58110 -6.24309 -11.57710 6.83242 1.40738 2.96232 4.67198 -1.88713 -11.35050 -1.76592 2.90113 -8.48832 44.05450 18.31420 10.48250 -37.25780 2.52397 1.46567 8.30821 -5.68328 
